<svg width="230" height="30" viewBox="0 0 230 30" fill="none" xmlns="http://www.w3.org/2000/svg">
<path d="M38.4622 23.7982V9.20496H33.2095V5.79492H47.5486V9.20496H42.317V23.7982H38.4622Z" fill="#FFFEEB"/>
<path d="M49.3201 23.7982V5.79492H53.1749V12.8692H53.2808C54.001 9.98863 55.8437 8.65427 58.0888 8.65427C61.2658 8.65427 63.7228 10.6876 63.7228 14.8601V23.7982H59.8679V15.7073C59.8679 13.5046 58.6183 12.0643 56.5214 12.0643C54.4246 12.0643 53.1749 13.5046 53.1749 15.7073V23.7982H49.3201Z" fill="#FFFEEB"/>
<path d="M74.4781 24.1371C69.4372 24.1371 66.2601 20.833 66.2601 16.3851C66.2601 11.916 69.4583 8.65427 74.2451 8.65427C79.0742 8.65427 82.103 11.916 82.103 16.6605V17.55H70.009C70.4538 19.8799 72.2753 21.0448 74.3934 21.0448C76.2784 21.0448 77.8246 20.3035 78.3541 18.9479H82.103C81.5523 22.3791 78.3117 24.1371 74.4781 24.1371ZM70.1573 14.6483H78.4812C77.8881 12.7421 76.2572 11.7466 74.3298 11.7466C72.466 11.7466 70.7927 12.7421 70.1573 14.6483Z" fill="#FFFEEB"/>
<path d="M97.9264 23.7982L96.5497 19.4139H88.607L87.2303 23.7982H83.0578L89.1154 5.79492H96.0625L102.078 23.7982H97.9264ZM89.6449 16.025H95.5118L93.2244 8.69663H91.9324L89.6449 16.025Z" fill="#FFFEEB"/>
<path d="M104.257 23.7982V8.99316H112.644V12.4032H108.112V23.7982H104.257Z" fill="#FFFEEB"/>
<path d="M125.48 23.7982L121.223 18.0584H118.66V23.7982H114.806V5.79492H118.66V14.6483H121.138L124.845 8.99316H129.229L124.167 16.2792L129.992 23.7982H125.48Z" fill="#FFFEEB"/>
<path d="M132.414 23.7982V5.79492H138.344C144.169 5.79492 146.986 8.61191 146.986 12.9751C146.986 17.3382 144.169 20.134 138.344 20.134H136.268V23.7982H132.414ZM138.28 9.20496H136.268V16.724H138.28C141.415 16.724 142.961 15.3896 142.961 12.9751C142.961 10.5393 141.415 9.20496 138.28 9.20496Z" fill="#FFFEEB"/>
<path d="M149.451 23.7982V8.99316H157.839V12.4032H153.306V23.7982H149.451Z" fill="#FFFEEB"/>
<path d="M166.686 24.1159C161.921 24.1159 158.511 20.8542 158.511 16.3851C158.511 11.916 161.921 8.65427 166.686 8.65427C171.452 8.65427 174.862 11.916 174.862 16.3851C174.862 20.8542 171.452 24.1159 166.686 24.1159ZM166.686 20.8542C168.741 20.8542 170.816 19.4351 170.816 16.3851C170.816 13.314 168.741 11.916 166.686 11.916C164.632 11.916 162.556 13.314 162.556 16.3851C162.556 19.4351 164.632 20.8542 166.686 20.8542Z" fill="#FFFEEB"/>
<path d="M181.457 27.9496H174.362V24.8149H177.603V11.2806H181.457V27.9496ZM177.476 9.18378V5.79492H181.585V9.18378H177.476Z" fill="#FFFEEB"/>
<path d="M192.77 24.1371C187.729 24.1371 184.552 20.833 184.552 16.3851C184.552 11.916 187.75 8.65427 192.537 8.65427C197.366 8.65427 200.395 11.916 200.395 16.6605V17.55H188.301C188.745 19.8799 190.567 21.0448 192.685 21.0448C194.57 21.0448 196.116 20.3035 196.646 18.9479H200.395C199.844 22.3791 196.603 24.1371 192.77 24.1371ZM188.449 14.6483H196.773C196.18 12.7421 194.549 11.7466 192.621 11.7466C190.757 11.7466 189.084 12.7421 188.449 14.6483Z" fill="#FFFEEB"/>
<path d="M210.741 24.1159C205.869 24.1159 202.65 20.8542 202.65 16.3851C202.65 11.916 205.869 8.65427 210.699 8.65427C215.125 8.65427 217.879 11.2806 218.239 15.0931H214.342C214.087 12.9327 212.541 11.789 210.677 11.789C208.665 11.789 206.696 13.314 206.696 16.3851C206.696 19.4351 208.665 20.9812 210.72 20.9812C212.732 20.9812 214.299 19.774 214.596 17.6771H218.493C218.133 21.6378 215.062 24.1159 210.741 24.1159Z" fill="#FFFEEB"/>
<path d="M221.431 23.7982V5.79492H225.286V8.99316H229.332V12.4032H225.286V23.7982H221.431Z" fill="#FFFEEB"/>
<path fill-rule="evenodd" clip-rule="evenodd" d="M12.9364 28.1423C21.0817 29.2738 28.4896 24.3979 29.4824 17.2517C30.4751 10.1054 24.6768 3.39491 16.5315 2.26334C13.1993 1.80042 9.9905 2.34291 7.29384 3.63494C8.90933 3.17931 10.6598 2.97276 12.4775 3.06633C20.0604 3.45664 25.9425 8.92168 25.6155 15.2728C25.2886 21.624 18.8765 26.4562 11.2937 26.0659C8.52995 25.9237 5.99217 25.1073 3.89858 23.8196C6.19769 26.0537 9.33801 27.6424 12.9364 28.1423Z" fill="#F8545C"/>
<path fill-rule="evenodd" clip-rule="evenodd" d="M2.94889 7.22081C0.578607 8.89901 -1.02946 14.682 0.914745 18.2927C2.19523 20.6707 6.94906 21.9776 11.3139 21.8731C16.7677 21.8731 20.5518 18.6484 20.5518 14.6736C20.5518 10.8856 17.5977 6.77405 7.24472 6.77405C5.84934 6.7766 4.27944 6.93223 2.94889 7.22081ZM2.34346 13.672C3.06352 12.8185 4.06334 12.3322 5.11307 12.442C6.16281 12.5518 7.04033 13.2346 7.56816 14.2186C7.64161 12.1128 6.69756 10.3701 5.34464 10.2286C3.99173 10.087 2.70744 11.5966 2.34346 13.672ZM13.8409 13.6566C12.7912 13.5468 11.7914 14.0331 11.0713 14.8866C11.4352 12.8109 12.7195 11.3012 14.0726 11.4428C15.4256 11.5843 16.3697 13.3272 16.2961 15.4332C15.7682 14.4492 14.8907 13.7664 13.8409 13.6566Z" fill="#F8545C"/>
</svg>
